{
    "asset" : {
        "generator" : "Khronos glTF Blender I/O v1.4.40",
        "version" : "2.0"
    },
    "scene" : 0,
    "scenes" : [
        {
            "extras" : {
                "blenderkitUI" : {
                    "assetbar_on" : 0,
                    "turn_off" : 0
                }
            },
            "name" : "Scene",
            "nodes" : [
                0
            ]
        }
    ],
    "nodes" : [
        {
            "mesh" : 0,
            "name" : "SciFiHelmet"
        }
    ],
    "materials" : [
        {
            "name" : "SciFiHelmet",
            "normalTexture" : {
                "index" : 0,
                "texCoord" : 0
            },
            "occlusionTexture" : {
                "index" : 1,
                "texCoord" : 0
            },
            "pbrMetallicRoughness" : {
                "baseColorTexture" : {
                    "index" : 2,
                    "texCoord" : 0
                },
                "metallicRoughnessTexture" : {
                    "index" : 1,
                    "texCoord" : 0
                }
            }
        }
    ],
    "meshes" : [
        {
            "name" : "SciFiHelmet",
            "primitives" : [
                {
                    "attributes" : {
                        "POSITION" : 0,
                        "NORMAL" : 1,
                        "TANGENT" : 2,
                        "TEXCOORD_0" : 3
                    },
                    "indices" : 4,
                    "material" : 0
                }
            ]
        }
    ],
    "textures" : [
        {
            "sampler" : 0,
            "source" : 0
        },
        {
            "sampler" : 0,
            "source" : 1
        },
        {
            "sampler" : 0,
            "source" : 2
        }
    ],
    "images" : [
        {
            "mimeType" : "image/png",
            "name" : "SciFiHelmet_Normal",
            "uri" : "SciFiHelmet_Normal.png"
        },
        {
            "mimeType" : "image/png",
            "name" : "SciFiHelmet_AmbientOcclusion-SciFiHelmet_MetallicRoughness",
            "uri" : "SciFiHelmet_AmbientOcclusion-SciFiHelmet_MetallicRoughness.png"
        },
        {
            "mimeType" : "image/png",
            "name" : "SciFiHelmet_BaseColor",
            "uri" : "SciFiHelmet_BaseColor.png"
        }
    ],
    "accessors" : [
        {
            "bufferView" : 0,
            "componentType" : 5126,
            "count" : 70074,
            "max" : [
                1.151152491569519,
                1.4587184190750122,
                1.2511277198791504
            ],
            "min" : [
                -1.151152491569519,
                -1.4587182998657227,
                -1.2511286735534668
            ],
            "type" : "VEC3"
        },
        {
            "bufferView" : 1,
            "componentType" : 5126,
            "count" : 70074,
            "type" : "VEC3"
        },
        {
            "bufferView" : 2,
            "componentType" : 5126,
            "count" : 70074,
            "type" : "VEC4"
        },
        {
            "bufferView" : 3,
            "componentType" : 5126,
            "count" : 70074,
            "type" : "VEC2"
        },
        {
            "bufferView" : 4,
            "componentType" : 5125,
            "count" : 70074,
            "type" : "SCALAR"
        }
    ],
    "bufferViews" : [
        {
            "buffer" : 0,
            "byteLength" : 840888,
            "byteOffset" : 0
        },
        {
            "buffer" : 0,
            "byteLength" : 840888,
            "byteOffset" : 840888
        },
        {
            "buffer" : 0,
            "byteLength" : 1121184,
            "byteOffset" : 1681776
        },
        {
            "buffer" : 0,
            "byteLength" : 560592,
            "byteOffset" : 2802960
        },
        {
            "buffer" : 0,
            "byteLength" : 280296,
            "byteOffset" : 3363552
        }
    ],
    "samplers" : [
        {
            "magFilter" : 9729,
            "minFilter" : 9986
        }
    ],
    "buffers" : [
        {
            "byteLength" : 3643848,
            "uri" : "untitled.bin"
        }
    ]
}
