{
    "asset" : {
        "generator" : "Khronos glTF Blender I/O v1.4.40",
        "version" : "2.0"
    },
    "scene" : 0,
    "scenes" : [
        {
            "extras" : {
                "blenderkitUI" : {
                    "assetbar_on" : 0,
                    "turn_off" : 0
                }
            },
            "name" : "Scene",
            "nodes" : [
                0,
                1,
                2,
                3,
                4,
                5,
                6
            ]
        }
    ],
    "nodes" : [
        {
            "mesh" : 0,
            "name" : "Plane"
        },
        {
            "mesh" : 1,
            "name" : "Cube",
            "translation" : [
                0,
                2.6839818954467773,
                0
            ]
        },
        {
            "mesh" : 2,
            "name" : "Cube.001",
            "translation" : [
                -0.48227858543395996,
                3.199138641357422,
                -5.1142191886901855
            ]
        },
        {
            "mesh" : 3,
            "name" : "Cube.002",
            "translation" : [
                6.247309684753418,
                2.8249266147613525,
                3.2516865730285645
            ]
        },
        {
            "mesh" : 4,
            "name" : "Cube.003",
            "translation" : [
                -7.404227256774902,
                3.2143359184265137,
                0.5756840705871582
            ]
        },
        {
            "mesh" : 5,
            "name" : "Cube.004",
            "translation" : [
                -8.417374610900879,
                3.5958642959594727,
                8.064656257629395
            ]
        },
        {
            "name" : "Sun",
            "rotation" : [
                0.30087053775787354,
                0.17068494856357574,
                0.25941112637519836,
                0.9016925692558289
            ],
            "translation" : [
                0,
                9.047911643981934,
                19.556346893310547
            ]
        }
    ],
    "materials" : [
        {
            "doubleSided" : true,
            "name" : "Material.001",
            "normalTexture" : {
                "index" : 0,
                "texCoord" : 0
            },
            "pbrMetallicRoughness" : {
                "baseColorTexture" : {
                    "index" : 1,
                    "texCoord" : 0
                },
                "metallicFactor" : 0,
                "metallicRoughnessTexture" : {
                    "index" : 2,
                    "texCoord" : 0
                }
            }
        }
    ],
    "meshes" : [
        {
            "name" : "Plane",
            "primitives" : [
                {
                    "attributes" : {
                        "POSITION" : 0,
                        "NORMAL" : 1,
                        "TANGENT" : 2,
                        "TEXCOORD_0" : 3
                    },
                    "indices" : 4,
                    "material" : 0
                }
            ]
        },
        {
            "name" : "Cube.001",
            "primitives" : [
                {
                    "attributes" : {
                        "POSITION" : 5,
                        "NORMAL" : 6,
                        "TANGENT" : 7,
                        "TEXCOORD_0" : 8
                    },
                    "indices" : 9,
                    "material" : 0
                }
            ]
        },
        {
            "name" : "Cube.002",
            "primitives" : [
                {
                    "attributes" : {
                        "POSITION" : 10,
                        "NORMAL" : 11,
                        "TANGENT" : 12,
                        "TEXCOORD_0" : 13
                    },
                    "indices" : 9,
                    "material" : 0
                }
            ]
        },
        {
            "name" : "Cube.003",
            "primitives" : [
                {
                    "attributes" : {
                        "POSITION" : 14,
                        "NORMAL" : 15,
                        "TANGENT" : 16,
                        "TEXCOORD_0" : 17
                    },
                    "indices" : 18,
                    "material" : 0
                }
            ]
        },
        {
            "name" : "Cube.004",
            "primitives" : [
                {
                    "attributes" : {
                        "POSITION" : 19,
                        "NORMAL" : 20,
                        "TANGENT" : 21,
                        "TEXCOORD_0" : 22
                    },
                    "indices" : 23,
                    "material" : 0
                }
            ]
        },
        {
            "name" : "Cube.005",
            "primitives" : [
                {
                    "attributes" : {
                        "POSITION" : 24,
                        "NORMAL" : 25,
                        "TANGENT" : 26,
                        "TEXCOORD_0" : 27
                    },
                    "indices" : 18,
                    "material" : 0
                }
            ]
        }
    ],
    "textures" : [
        {
            "sampler" : 0,
            "source" : 0
        },
        {
            "sampler" : 0,
            "source" : 1
        },
        {
            "sampler" : 0,
            "source" : 2
        }
    ],
    "images" : [
        {
            "mimeType" : "image/png",
            "name" : "normal",
            "uri" : "normal.png"
        },
        {
            "mimeType" : "image/png",
            "name" : "white",
            "uri" : "white.png"
        },
        {
            "mimeType" : "image/png",
            "name" : "Rough",
            "uri" : "Rough.png"
        }
    ],
    "accessors" : [
        {
            "bufferView" : 0,
            "componentType" : 5126,
            "count" : 4388,
            "max" : [
                9.042881965637207,
                1.081876277923584,
                9.002578735351562
            ],
            "min" : [
                -9.000004768371582,
                -0.009999999776482582,
                -9.042959213256836
            ],
            "type" : "VEC3"
        },
        {
            "bufferView" : 1,
            "componentType" : 5126,
            "count" : 4388,
            "type" : "VEC3"
        },
        {
            "bufferView" : 2,
            "componentType" : 5126,
            "count" : 4388,
            "type" : "VEC4"
        },
        {
            "bufferView" : 3,
            "componentType" : 5126,
            "count" : 4388,
            "type" : "VEC2"
        },
        {
            "bufferView" : 4,
            "componentType" : 5123,
            "count" : 25368,
            "type" : "SCALAR"
        },
        {
            "bufferView" : 5,
            "componentType" : 5126,
            "count" : 24,
            "max" : [
                1,
                3.3902316093444824,
                1
            ],
            "min" : [
                -1,
                -3.3902316093444824,
                -1
            ],
            "type" : "VEC3"
        },
        {
            "bufferView" : 6,
            "componentType" : 5126,
            "count" : 24,
            "type" : "VEC3"
        },
        {
            "bufferView" : 7,
            "componentType" : 5126,
            "count" : 24,
            "type" : "VEC4"
        },
        {
            "bufferView" : 8,
            "componentType" : 5126,
            "count" : 24,
            "type" : "VEC2"
        },
        {
            "bufferView" : 9,
            "componentType" : 5123,
            "count" : 36,
            "type" : "SCALAR"
        },
        {
            "bufferView" : 10,
            "componentType" : 5126,
            "count" : 24,
            "max" : [
                1,
                3.3902316093444824,
                1
            ],
            "min" : [
                -1,
                -3.3902316093444824,
                -1
            ],
            "type" : "VEC3"
        },
        {
            "bufferView" : 11,
            "componentType" : 5126,
            "count" : 24,
            "type" : "VEC3"
        },
        {
            "bufferView" : 12,
            "componentType" : 5126,
            "count" : 24,
            "type" : "VEC4"
        },
        {
            "bufferView" : 13,
            "componentType" : 5126,
            "count" : 24,
            "type" : "VEC2"
        },
        {
            "bufferView" : 14,
            "componentType" : 5126,
            "count" : 24,
            "max" : [
                0.19043123722076416,
                3.3902316093444824,
                0.1904304027557373
            ],
            "min" : [
                -0.19043004512786865,
                -3.3902316093444824,
                -0.1904308795928955
            ],
            "type" : "VEC3"
        },
        {
            "bufferView" : 15,
            "componentType" : 5126,
            "count" : 24,
            "type" : "VEC3"
        },
        {
            "bufferView" : 16,
            "componentType" : 5126,
            "count" : 24,
            "type" : "VEC4"
        },
        {
            "bufferView" : 17,
            "componentType" : 5126,
            "count" : 24,
            "type" : "VEC2"
        },
        {
            "bufferView" : 18,
            "componentType" : 5123,
            "count" : 36,
            "type" : "SCALAR"
        },
        {
            "bufferView" : 19,
            "componentType" : 5126,
            "count" : 72,
            "max" : [
                6.861966609954834,
                3.3902316093444824,
                0.1904304027557373
            ],
            "min" : [
                -0.19043004512786865,
                -3.3902316093444824,
                -0.1904308795928955
            ],
            "type" : "VEC3"
        },
        {
            "bufferView" : 20,
            "componentType" : 5126,
            "count" : 72,
            "type" : "VEC3"
        },
        {
            "bufferView" : 21,
            "componentType" : 5126,
            "count" : 72,
            "type" : "VEC4"
        },
        {
            "bufferView" : 22,
            "componentType" : 5126,
            "count" : 72,
            "type" : "VEC2"
        },
        {
            "bufferView" : 23,
            "componentType" : 5123,
            "count" : 132,
            "type" : "SCALAR"
        },
        {
            "bufferView" : 24,
            "componentType" : 5126,
            "count" : 24,
            "max" : [
                0.19043123722076416,
                3.3902316093444824,
                0.1904304027557373
            ],
            "min" : [
                -0.19043004512786865,
                -3.3902316093444824,
                -0.1904308795928955
            ],
            "type" : "VEC3"
        },
        {
            "bufferView" : 25,
            "componentType" : 5126,
            "count" : 24,
            "type" : "VEC3"
        },
        {
            "bufferView" : 26,
            "componentType" : 5126,
            "count" : 24,
            "type" : "VEC4"
        },
        {
            "bufferView" : 27,
            "componentType" : 5126,
            "count" : 24,
            "type" : "VEC2"
        }
    ],
    "bufferViews" : [
        {
            "buffer" : 0,
            "byteLength" : 52656,
            "byteOffset" : 0
        },
        {
            "buffer" : 0,
            "byteLength" : 52656,
            "byteOffset" : 52656
        },
        {
            "buffer" : 0,
            "byteLength" : 70208,
            "byteOffset" : 105312
        },
        {
            "buffer" : 0,
            "byteLength" : 35104,
            "byteOffset" : 175520
        },
        {
            "buffer" : 0,
            "byteLength" : 50736,
            "byteOffset" : 210624
        },
        {
            "buffer" : 0,
            "byteLength" : 288,
            "byteOffset" : 261360
        },
        {
            "buffer" : 0,
            "byteLength" : 288,
            "byteOffset" : 261648
        },
        {
            "buffer" : 0,
            "byteLength" : 384,
            "byteOffset" : 261936
        },
        {
            "buffer" : 0,
            "byteLength" : 192,
            "byteOffset" : 262320
        },
        {
            "buffer" : 0,
            "byteLength" : 72,
            "byteOffset" : 262512
        },
        {
            "buffer" : 0,
            "byteLength" : 288,
            "byteOffset" : 262584
        },
        {
            "buffer" : 0,
            "byteLength" : 288,
            "byteOffset" : 262872
        },
        {
            "buffer" : 0,
            "byteLength" : 384,
            "byteOffset" : 263160
        },
        {
            "buffer" : 0,
            "byteLength" : 192,
            "byteOffset" : 263544
        },
        {
            "buffer" : 0,
            "byteLength" : 288,
            "byteOffset" : 263736
        },
        {
            "buffer" : 0,
            "byteLength" : 288,
            "byteOffset" : 264024
        },
        {
            "buffer" : 0,
            "byteLength" : 384,
            "byteOffset" : 264312
        },
        {
            "buffer" : 0,
            "byteLength" : 192,
            "byteOffset" : 264696
        },
        {
            "buffer" : 0,
            "byteLength" : 72,
            "byteOffset" : 264888
        },
        {
            "buffer" : 0,
            "byteLength" : 864,
            "byteOffset" : 264960
        },
        {
            "buffer" : 0,
            "byteLength" : 864,
            "byteOffset" : 265824
        },
        {
            "buffer" : 0,
            "byteLength" : 1152,
            "byteOffset" : 266688
        },
        {
            "buffer" : 0,
            "byteLength" : 576,
            "byteOffset" : 267840
        },
        {
            "buffer" : 0,
            "byteLength" : 264,
            "byteOffset" : 268416
        },
        {
            "buffer" : 0,
            "byteLength" : 288,
            "byteOffset" : 268680
        },
        {
            "buffer" : 0,
            "byteLength" : 288,
            "byteOffset" : 268968
        },
        {
            "buffer" : 0,
            "byteLength" : 384,
            "byteOffset" : 269256
        },
        {
            "buffer" : 0,
            "byteLength" : 192,
            "byteOffset" : 269640
        }
    ],
    "samplers" : [
        {
            "magFilter" : 9729,
            "minFilter" : 9986
        }
    ],
    "buffers" : [
        {
            "byteLength" : 269832,
            "uri" : "scene.bin"
        }
    ]
}
